<?xml version="1.0" standalone="no"?>
<!DOCTYPE svg PUBLIC "-//W3C//DTD SVG 1.1//EN" "http://www.w3.org/Graphics/SVG/1.1/DTD/svg11.dtd" >
<svg xmlns="http://www.w3.org/2000/svg">
<metadata></metadata>
<defs>
<font id="aaux_proregular_osfregular" horiz-adv-x="1343" >
<font-face units-per-em="2048" ascent="1638" descent="-410" />
<missing-glyph horiz-adv-x="552" />
<glyph horiz-adv-x="0" />
<glyph unicode="&#xd;" horiz-adv-x="552" />
<glyph unicode=" "  horiz-adv-x="552" />
<glyph unicode="&#x09;" horiz-adv-x="552" />
<glyph unicode="&#xa0;" horiz-adv-x="552" />
<glyph unicode="!" horiz-adv-x="573" d="M205 86q0 43 29.5 72.5t72.5 29.5t73 -29.5t30 -72.5t-30 -72.5t-73 -29.5t-72.5 29.5t-29.5 72.5zM231 741v689h152v-689l-21 -389h-108z" />
<glyph unicode="&#x22;" horiz-adv-x="696" d="M123 1120v310q0 33 22.5 56t55.5 23t55.5 -23.5t22.5 -55.5v-310h-156zM418 1120v310q0 33 22.5 56t55.5 23t55 -23.5t22 -55.5v-310h-155z" />
<glyph unicode="#" horiz-adv-x="1349" d="M139 389l27 127h233l62 283h-234l27 127h233l84 389h129l-84 -389h285l84 389h129l-84 -389h234l-27 -127h-233l-62 -283h234l-27 -127h-234l-84 -389h-129l84 389h-284l-84 -389h-129l84 389h-234zM528 516h285l61 283h-284z" />
<glyph unicode="$" horiz-adv-x="1015" d="M90 311l131 37q35 -184 230 -209v410q-150 35 -220 84q-102 70 -102 203q0 129 100 206q88 68 222 80v111h133v-113q219 -27 317 -237l-123 -56q-63 139 -194 160v-334q164 -39 237 -94q107 -78 107 -223q0 -141 -105 -232q-94 -84 -239 -98v-100h-133v102 q-137 14 -230 86q-106 80 -131 217zM264 836q1 -101 187 -150v303q-186 -20 -187 -153zM584 139q90 12 145 60q64 53 64 137q0 131 -209 184v-381z" />
<glyph unicode="%" horiz-adv-x="1507" d="M127 952q0 154 61 252q72 117 218 117q145 0 219 -117q59 -96 59 -250q0 -156 -59 -252q-74 -115 -219 -114q-145 0 -218 114q-61 94 -61 250zM242 954q0 -102 34 -170q41 -84 130 -84q163 0 163 254q0 252 -163 252q-164 0 -164 -252zM408 0l575 1303h129l-575 -1303 h-129zM836 348q0 156 59 252q74 115 219 115t217 -115q60 -96 60 -252q0 -154 -60 -250q-72 -117 -217 -116q-145 0 -219 116q-59 96 -59 250zM950 348q0 -254 164 -254q162 0 162 254t-162 254q-164 0 -164 -254z" />
<glyph unicode="&#x26;" horiz-adv-x="1353" d="M102 356q0 240 263 432q-129 193 -129 318t82.5 208t213.5 83t224 -68q98 -74 98 -199q0 -43 -39 -188q-37 -135 -31 -149q18 -45 154 -45h94q59 0 86 18t27 76h127q0 -156 -121 -201q0 -100 -21 -190q-27 -125 -88 -222q86 -74 172 -135l-92 -94q-82 59 -161 131 q-158 -152 -398 -151q-188 0 -317 94q-143 104 -144 282zM233 344q0 -113 105 -178q92 -57 225 -57q182 -1 299 108q-244 229 -422 465q-207 -152 -207 -338zM369 1106q0 -121 206 -387q160 -205 367 -400q72 128 76 304h-29q-178 0 -250 47q-61 39 -61 125q0 41 21.5 154.5 t21.5 180.5q0 68 -62 109q-53 33 -127 33t-118.5 -47t-44.5 -119z" />
<glyph unicode="'" horiz-adv-x="401" d="M123 1120v310q0 33 22.5 56t55.5 23t55.5 -23.5t22.5 -55.5v-310h-156z" />
<glyph unicode="(" horiz-adv-x="669" d="M102 715q0 197 81 390t220 325h185q-158 -121 -247 -314.5t-89 -400.5q0 -205 88 -396q90 -198 248 -319h-185q-141 133 -221 325.5t-80 389.5z" />
<glyph unicode=")" horiz-adv-x="669" d="M82 0q158 121 248 319q88 190 88 396q0 207 -89 400.5t-247 314.5h182q141 -131 222 -324.5t81 -390.5t-79.5 -389.5t-223.5 -325.5h-182z" />
<glyph unicode="*" horiz-adv-x="892" d="M92 1139l39 116l260 -92l-8 277h125l-8 -277l262 92l39 -116l-266 -80l167 -219l-100 -72l-156 227l-157 -227l-101 72l170 219z" />
<glyph unicode="+" horiz-adv-x="1026" d="M92 498v125h359v358h124v-358h359v-125h-359v-359h-124v359h-359z" />
<glyph unicode="," horiz-adv-x="450" d="M133 90q0 35 26.5 60.5t65.5 25.5t65.5 -25.5t26.5 -60.5v-119l-159 -247h-25v366z" />
<glyph unicode="-" horiz-adv-x="813" d="M133 498v125h547v-125h-547z" />
<glyph unicode="." horiz-adv-x="485" d="M133 92q0 45 32 77t77 32t77.5 -32t32.5 -77t-32.5 -76.5t-77.5 -31.5t-77 31.5t-32 76.5z" />
<glyph unicode="/" horiz-adv-x="806" d="M10 -156l645 1741h142l-643 -1741h-144z" />
<glyph unicode="0" horiz-adv-x="1222" d="M133 496q0 236 119 366q125 139 360 139q236 0 361 -139q117 -130 117 -366q0 -233 -117 -365q-125 -139 -361 -139t-360 139q-119 131 -119 365zM272 496q0 -367 340 -367q338 0 338 367q0 369 -338 368q-340 0 -340 -368z" />
<glyph unicode="1" horiz-adv-x="811" d="M143 758l389 233h74v-991h-137v797l-258 -156z" />
<glyph unicode="2" horiz-adv-x="1198" d="M154 0v121q41 147 233 252q164 74 330 147.5t166 157.5q0 195 -293 194q-215 0 -299 -194l-125 57q57 129 168.5 201t255.5 72q436 0 436 -342q0 -113 -113 -193q-72 -53 -247 -121q-160 -61 -222 -94q-111 -59 -131 -121h752v-137h-911z" />
<glyph unicode="3" horiz-adv-x="1050" d="M86 -160l125 70q70 -209 297 -209q133 0 220 77t87 202q0 276 -352 274v125q319 -2 319 246q0 106 -85 179t-199 73q-94 0 -170 -51.5t-111 -145.5l-121 72q121 258 406 258q178 0 300 -106.5t122 -278.5q0 -209 -168 -303q202 -100 202 -342q0 -188 -126.5 -302 t-323.5 -114q-313 0 -422 276z" />
<glyph unicode="4" horiz-adv-x="1103" d="M82 8v123l612 942h162l-598 -928h506v576l141 -27v-549h107v-137h-107v-444h-141v444h-682z" />
<glyph unicode="5" horiz-adv-x="1089" d="M106 -176l125 74q66 -205 291 -205q160 0 250 98q84 96 84 256t-82 254q-88 98 -246 98q-150 0 -264 -104h-123v696h764v-133h-629v-399q111 76 250 76q225 0 348 -134.5t123 -353.5q0 -217 -125 -350q-129 -141 -352 -141q-139 0 -249.5 68.5t-164.5 199.5z" />
<glyph unicode="6" horiz-adv-x="1105" d="M104 489q0 596 508 949l86 -84q-338 -260 -424 -574q109 121 293 121q199 0 323 -134t124 -333q0 -190 -129 -318t-320 -128q-211 0 -338 147q-123 141 -123 354zM244 442q0 -129 97 -225t226 -96q131 0 220.5 90t89.5 223q0 139 -85 235.5t-225 96.5q-150 0 -236.5 -87 t-86.5 -237z" />
<glyph unicode="7" horiz-adv-x="1026" d="M72 754v237h878v-125q-487 -532 -467 -1304l-153 43q2 420 141 757q100 244 297 492h-555v-100h-141z" />
<glyph unicode="8" horiz-adv-x="1105" d="M92 403q0 250 199 349q-160 94 -160 305q0 168 123 276.5t299 108.5t297 -105q125 -111 125 -280q0 -211 -162 -305q201 -99 201 -349q0 -190 -137 -307q-127 -111 -324 -110q-197 0 -326 110q-135 117 -135 307zM236 403q0 -125 92 -203.5t225 -78.5t224 78.5t91 203.5 q0 135 -87 214t-228 79t-229 -77.5t-88 -215.5zM274 1057q0 -119 77 -182.5t202 -63.5q127 0 202.5 63.5t75.5 182.5q0 109 -81.5 180.5t-196.5 71.5t-197 -72t-82 -180z" />
<glyph unicode="9" horiz-adv-x="1110" d="M109 561q0 184 126.5 314.5t315.5 130.5q213 0 340 -150q119 -137 121 -348q2 -283 -142 -537q-137 -240 -389 -420l-90 91q350 295 440 583q-125 -113 -276 -112q-193 0 -319.5 130t-126.5 318zM248 561q0 -127 87 -220t214 -93q133 0 224 91t91 222q0 127 -93 219 t-222 92q-127 0 -214 -92t-87 -219z" />
<glyph unicode=":" horiz-adv-x="485" d="M133 92q0 45 32 77t77 32t77.5 -32t32.5 -77t-32.5 -76.5t-77.5 -31.5t-77 31.5t-32 76.5zM133 682q0 45 32 78t77 33t77.5 -33t32.5 -78t-32.5 -77t-77.5 -32t-77 32t-32 77z" />
<glyph unicode=";" horiz-adv-x="485" d="M133 682q0 45 32 78t77 33t77.5 -33t32.5 -78t-32.5 -77t-77.5 -32t-77 32t-32 77zM150 90q0 35 27.5 60.5t64.5 25.5q39 0 65.5 -25.5t26.5 -60.5v-119l-158 -247h-26v366z" />
<glyph unicode="&#x3c;" horiz-adv-x="956" d="M131 715l539 715h180l-539 -715l539 -715h-180z" />
<glyph unicode="=" horiz-adv-x="1046" d="M113 248v123h821v-123h-821zM113 655v121h821v-121h-821z" />
<glyph unicode="&#x3e;" horiz-adv-x="956" d="M131 0l539 715l-539 715h180l539 -715l-539 -715h-180z" />
<glyph unicode="?" horiz-adv-x="1017" d="M102 1053q0 180 125 290q117 102 285 103q168 0 283 -103q120 -108 120 -278q0 -178 -176 -283q-88 -53 -121 -94q-43 -55 -49 -149l-8 -183h-100q-16 131 -17 183q0 133 58 215q37 53 122 106t107 78q47 49 47 127q0 113 -78 180q-74 61 -188 62q-115 0 -193 -64 q-86 -70 -86 -190h-131zM414 84q0 43 29.5 72.5t72.5 29.5q41 0 70.5 -29.5t29.5 -72.5q0 -41 -29.5 -70.5t-70.5 -29.5q-43 0 -72.5 29.5t-29.5 70.5z" />
<glyph unicode="@" horiz-adv-x="1363" d="M143 449q2 293 185 557q201 293 475 294q203 2 319 -172q101 -149 101 -362q0 -127 -39 -258l-31 -514l-137 8l12 203q-129 -227 -311 -228q-139 0 -209 111q-61 96 -62 246q0 201 119 379q131 201 324 202q115 2 192 -84q-14 135 -75 224q-76 109 -201 108 q-215 0 -377 -252q-145 -229 -145 -462q0 -250 149 -365l-74 -115q-217 154 -215 480zM582 334q0 -82 30 -144q37 -78 113 -77q125 0 223 161q86 142 86 281q0 84 -30 145q-37 78 -113 78q-129 0 -225 -164q-84 -143 -84 -280z" />
<glyph unicode="A" d="M41 0l553 1430h156l553 -1430h-154l-164 424h-627l-165 -424h-152zM410 561h524l-262 676z" />
<glyph unicode="B" horiz-adv-x="1308" d="M174 0v1430h490q458 0 458 -384q0 -209 -141 -303q98 -37 152 -139q47 -90 47 -205q0 -399 -480 -399h-526zM315 141h385q160 0 238 47q100 61 100 211q0 287 -338 287h-385v-545zM315 801h373q147 0 213 47q80 55 80 196q0 244 -317 244h-349v-487z" />
<glyph unicode="C" horiz-adv-x="1243" d="M109 715q0 313 127 506q147 227 444 227q145 0 256 -64q92 -55 194 -178l-108 -90q-80 98 -148 139q-82 51 -194 52q-426 0 -426 -592t426 -592q113 0 194 51q68 41 148 139l108 -90q-100 -123 -194 -178q-111 -63 -256 -63q-297 0 -444 229q-127 193 -127 504z" />
<glyph unicode="D" horiz-adv-x="1329" d="M174 0v1430h428q373 0 498 -181q100 -143 100 -534q0 -401 -94 -539q-121 -176 -504 -176h-428zM315 141h287q217 0 318 64q90 57 116 192q17 87 17 318q0 332 -58 430q-86 143 -393 143h-287v-1147z" />
<glyph unicode="E" horiz-adv-x="1206" d="M174 0v1430h909v-142h-768v-473h672v-137h-672v-537h768v-141h-909z" />
<glyph unicode="F" horiz-adv-x="1165" d="M174 0v1430h889v-142h-748v-477h672v-137h-672v-674h-141z" />
<glyph unicode="G" horiz-adv-x="1320" d="M109 715q0 315 124 506q147 227 449 227q145 0 254 -64q90 -53 197 -178l-109 -90q-86 100 -150 139q-80 51 -192 52q-432 0 -432 -592q0 -248 84 -400q105 -192 336 -192h2q352 0 352 500h-360v133h501v-756h-141v166q-104 -184 -352 -184q-295 0 -441 229 q-122 188 -122 499v5z" />
<glyph unicode="H" horiz-adv-x="1380" d="M174 0v1430h141v-621h748v621h143v-1430h-143v674h-748v-674h-141z" />
<glyph unicode="I" horiz-adv-x="514" d="M184 0v1430h146v-1430h-146z" />
<glyph unicode="J" horiz-adv-x="1093" d="M51 307l137 35q29 -106 113 -164.5t191 -58.5q305 0 305 319v992h143v-992q0 -452 -444 -452h-2q-356 0 -443 321z" />
<glyph unicode="K" horiz-adv-x="1183" d="M174 0v1430h141v-703l594 703h166l-594 -709l652 -721h-179l-639 709v-709h-141z" />
<glyph unicode="L" horiz-adv-x="1050" d="M174 0v1430h141v-1293h684v-137h-825z" />
<glyph unicode="M" horiz-adv-x="1529" d="M174 0v1430h143l449 -1254l446 1254h144v-1430h-142v1057l-383 -1057h-133l-381 1057v-1057h-143z" />
<glyph unicode="N" horiz-adv-x="1331" d="M174 0v1430h141l701 -1176v1176h141v-1430h-141l-701 1176v-1176h-141z" />
<glyph unicode="O" horiz-adv-x="1363" d="M113 715q0 313 123 504q147 229 446 229t446 -229q123 -191 123 -504t-123 -504q-147 -229 -446 -229t-446 229q-123 190 -123 504zM256 715q0 -592 426 -592q428 0 428 592t-428 592q-426 0 -426 -592z" />
<glyph unicode="P" horiz-adv-x="1257" d="M174 0v1430h526q476 -1 476 -400t-476 -399h-385v-631h-141zM315 764h385q334 0 334 266q0 150 -98 211q-76 47 -236 47h-385v-524z" />
<glyph unicode="Q" horiz-adv-x="1390" d="M129 715q0 319 123 508q147 225 450 225q297 0 447 -227q123 -193 123 -506q0 -348 -139 -529l155 -186h-184l-74 88q-139 -106 -328 -106q-301 0 -448 225q-125 190 -125 508zM272 715q0 -592 430 -592q137 0 236 72q-108 114 -248 114h-2v142q199 0 348 -154 q94 139 94 418q0 592 -428 592q-430 0 -430 -592z" />
<glyph unicode="R" horiz-adv-x="1251" d="M174 0v1430h490q209 0 329 -91q135 -100 135 -303q0 -154 -96 -262q-98 -115 -258 -129q35 -31 64 -82l331 -563h-165l-310 530q-66 113 -172 113h-207v-643h-141zM315 770h355q315 0 315 266q0 252 -321 252h-349v-518z" />
<glyph unicode="S" horiz-adv-x="1284" d="M111 375l139 35q55 -293 416 -293q145 0 247 71q115 80 115 220q0 174 -223 245q-207 55 -416 111q-223 90 -223 313q0 178 145 279q125 88 314 88q184 0 303 -66q127 -72 200 -231l-127 -60q-57 123 -151 173q-82 43 -225 43q-127 0 -211 -48q-106 -59 -107 -178 q0 -150 225 -215q207 -59 414 -117q225 -101 225 -337q0 -197 -157 -318q-142 -108 -342 -108h-4q-213 0 -359 92q-162 102 -198 301z" />
<glyph unicode="T" horiz-adv-x="1155" d="M61 1290v140h1033v-140h-445v-1290h-143v1290h-445z" />
<glyph unicode="U" horiz-adv-x="1359" d="M164 598v832h141v-832q0 -227 70 -336q88 -139 305 -139t305 139q70 111 70 336v832h141v-832q0 -616 -516 -616t-516 616z" />
<glyph unicode="V" horiz-adv-x="1226" d="M61 1430h150l403 -1184l402 1184h149l-487 -1430h-129z" />
<glyph unicode="W" horiz-adv-x="1617" d="M72 1430h147l260 -1117l260 1117h138l262 -1117l260 1117h147l-340 -1430h-137l-260 1118l-260 -1118h-137z" />
<glyph unicode="X" horiz-adv-x="1255" d="M72 0l473 737l-445 693h168l361 -566l358 566h170l-444 -693l471 -737h-168l-387 610l-389 -610h-168z" />
<glyph unicode="Y" horiz-adv-x="1222" d="M72 1430h157l383 -785l381 785h158l-469 -957v-473h-141v477z" />
<glyph unicode="Z" horiz-adv-x="1230" d="M113 0v119l809 1171h-738v140h914v-125l-805 -1164h805v-141h-985z" />
<glyph unicode="[" horiz-adv-x="571" d="M143 -156v1741h326v-104h-188v-1532h188v-105h-326z" />
<glyph unicode="\" horiz-adv-x="806" d="M10 1585h144l643 -1741h-142z" />
<glyph unicode="]" horiz-adv-x="571" d="M102 -51h189v1532h-189v104h326v-1741h-326v105z" />
<glyph unicode="^" horiz-adv-x="1087" d="M113 836l362 594h137l363 -594l-121 -68l-311 510l-312 -510z" />
<glyph unicode="_" horiz-adv-x="1083" d="M31 0h1022v-121h-1022v121z" />
<glyph unicode="`" horiz-adv-x="636" d="M154 1415h155l174 -299h-135z" />
<glyph unicode="a" horiz-adv-x="999" d="M113 279q0 137 100 221q92 78 231 78h172q68 0 105 34v105q0 78 -70 119q-55 34 -134 34h-5q-190 0 -238 -153l-124 47q74 242 366 242q137 0 234 -74q106 -82 106 -215v-602l31 -95l-131 -40l-25 81q-122 -81 -283 -81h-4q-133 0 -229 81q-102 88 -102 218zM250 279 q0 -74 59.5 -120t134.5 -46q166 0 277 98v262q-35 -22 -87 -22h-5h-187q-76 0 -134 -48.5t-58 -123.5z" />
<glyph unicode="b" horiz-adv-x="1050" d="M154 0v1430h137v-527q109 100 248 101q399 0 399 -512q0 -510 -399 -510q-160 0 -248 90v-72h-137zM291 340q0 -102 71.5 -162.5t176.5 -60.5q156 0 217 116q47 89 47 259q0 172 -45 258q-62 118 -216 118h-3q-104 0 -176 -60t-72 -165v-303z" />
<glyph unicode="c" horiz-adv-x="1015" d="M113 492q0 223 108 360q118 149 333 149h3q113 0 191 -40q68 -35 151 -127l-96 -91q-61 70 -109 97q-55 32 -132 32h-5q-301 0 -301 -380q0 -381 301 -381q80 0 137 34q47 27 109 95l96 -90q-84 -90 -151 -125q-78 -41 -191 -41q-217 0 -336 149q-109 137 -108 359z" />
<glyph unicode="d" horiz-adv-x="1040" d="M113 492q0 516 401 516q86 0 135 -16.5t113 -69.5v508h137v-1313q0 -1 29 -97l-131 -40l-27 88q-104 -86 -256 -86q-401 0 -401 510zM250 492q0 -170 45 -259q60 -116 216 -116h3q106 0 177 58t71 169v311q0 92 -74 154.5t-174 62.5q-158 0 -219 -120q-45 -88 -45 -260z " />
<glyph unicode="e" horiz-adv-x="1032" d="M113 489q0 227 96 363q113 156 328 156q195 0 294 -144q91 -124 91 -327l-2 -88h-670q8 -334 305 -334q166 0 256 114l92 -92q-120 -155 -345 -155h-3q-442 0 -442 507zM254 582h530q-14 292 -245 292h-2q-258 0 -283 -292z" />
<glyph unicode="f" horiz-adv-x="667" d="M133 856v135h92v62q0 377 371 377v-136q-233 0 -234 -239v-64h203v-135h-203v-856h-137v856h-92z" />
<glyph unicode="g" horiz-adv-x="1048" d="M104 -111q0 53 19 111l121 -43q-12 -31 -13 -61q0 -158 269 -158q113 0 211 63q114 71 114 177q0 51 -41 81.5t-92 30.5q-57 0 -163.5 -26.5t-163.5 -26.5q-188 0 -189 151q0 94 113 183q-147 84 -148 288q0 166 98.5 257.5t264.5 91.5q156 0 252 -80q53 15 53 88v10h133 v-6q0 -149 -106 -197q28 -70 28 -158v-6q0 -344 -360 -344q-45 0 -109 13q-94 -59 -94 -133q0 -45 57 -45t167 29.5t167 29.5q106 0 180 -57q82 -64 82 -168q0 -166 -149 -273q-133 -96 -305 -96q-160 0 -264 57q-131 72 -132 217zM279 659q0 -225 227 -225q221 0 221 225 q0 217 -223 218q-225 0 -225 -218z" />
<glyph unicode="h" horiz-adv-x="1071" d="M154 0v1430h137v-533q92 109 248 109q399 0 399 -420v-586h-135v575q0 152 -55 220q-60 75 -205 75h-4q-109 0 -178.5 -74.5t-69.5 -183.5v-612h-137z" />
<glyph unicode="i" horiz-adv-x="516" d="M164 1356q0 39 27.5 66.5t66.5 27.5t66.5 -27.5t27.5 -66.5t-27.5 -66.5t-66.5 -27.5t-66.5 27.5t-27.5 66.5zM188 0v991h140v-991h-140z" />
<glyph unicode="j" horiz-adv-x="532" d="M-20 -313q135 0 186 75q43 63 43 205v1024h137v-1024q0 -418 -366 -418v138zM190 1356q0 39 28 66.5t67 27.5t66.5 -27.5t27.5 -66.5t-27.5 -66.5t-66.5 -27.5t-67 27.5t-28 66.5z" />
<glyph unicode="k" horiz-adv-x="987" d="M154 0v1430h137v-891l397 454h178l-403 -456l471 -537h-186l-457 522v-522h-137z" />
<glyph unicode="l" horiz-adv-x="493" d="M170 233v1197h139v-1188q0 -57 16.5 -82t71.5 -25v-135q-227 0 -227 233z" />
<glyph unicode="m" horiz-adv-x="1611" d="M154 0v991h137v-80q84 96 221 97q207 0 303 -158q102 158 295 158q170 0 269.5 -113t99.5 -285v-610h-138v610q0 115 -57 187q-63 80 -174 80q-106 0 -168 -84q-57 -76 -57 -183v-610h-135v610q0 117 -60 189q-66 78 -180 78q-92 0 -155.5 -77t-63.5 -182v-618h-137z" />
<glyph unicode="n" horiz-adv-x="1071" d="M154 0v991h137v-94q94 111 248 111q399 0 399 -422v-586h-135v575q0 152 -55 222q-60 75 -205 75h-4q-109 0 -178.5 -75.5t-69.5 -184.5v-612h-137z" />
<glyph unicode="o" horiz-adv-x="1062" d="M113 494q0 514 419 514q418 0 418 -512q0 -510 -418 -510q-420 0 -419 508zM250 494q0 -176 51 -263q65 -112 226 -112h3q166 0 232 112q51 87 51 263q0 178 -51 266q-65 112 -229 112h-3q-164 0 -229 -112q-51 -88 -51 -266z" />
<glyph unicode="p" horiz-adv-x="1050" d="M154 -451v1442h137v-73q102 92 248 92q399 -1 399 -521q0 -514 -399 -514q-174 0 -248 82v-508h-137zM291 340q0 -102 71.5 -164.5t176.5 -62.5q156 0 219 118q45 86 45 258q0 174 -45 263q-62 120 -216 120h-3q-104 0 -176 -63.5t-72 -165.5v-303z" />
<glyph unicode="q" horiz-adv-x="1060" d="M111 492q0 520 403 520q145 0 256 -92l27 88l131 -39l-29 -99v-1321h-137v508q-104 -82 -248 -82q-403 0 -403 517zM250 492q0 -174 45 -261q60 -118 216 -118h3q104 0 176 62.5t72 164.5v305q0 102 -73 165.5t-175 63.5q-158 0 -219 -120q-45 -88 -45 -262z" />
<glyph unicode="r" horiz-adv-x="817" d="M154 0v991h135v-73q82 92 246 92q127 -1 188 -56l-53 -114q-63 37 -135 37q-100 0 -170 -56q-76 -57 -76 -155v-666h-135z" />
<glyph unicode="s" horiz-adv-x="989" d="M113 264l135 43q49 -192 268 -192h2q90 0 156 39q78 47 78 129q0 104 -158 151q-145 43 -291 84q-158 70 -158 221q0 129 111 203q96 66 233 66q264 0 371 -217l-123 -60q-68 143 -248 143q-78 0 -135 -28q-72 -37 -71 -107q0 -80 157 -125q260 -76 291 -90 q158 -79 158 -241q0 -139 -117 -226q-105 -73 -250 -73h-4q-332 0 -405 280z" />
<glyph unicode="t" horiz-adv-x="616" d="M82 858v135h135v289h133v-289h154v-135h-154v-616q0 -74 29 -92q20 -14 100 -15v-135h-55q-207 0 -207 242v616h-135z" />
<glyph unicode="u" horiz-adv-x="1081" d="M143 424v567h138v-567q0 -158 53 -227q61 -80 211 -80q100 0 174 60.5t74 160.5v653h135v-991h-135v74q-100 -90 -248 -90q-209 0 -305.5 105.5t-96.5 334.5z" />
<glyph unicode="v" horiz-adv-x="997" d="M61 991h146l291 -778l293 778h145l-373 -991h-131z" />
<glyph unicode="w" horiz-adv-x="1572" d="M61 991h146l239 -760l273 760h131l274 -760l244 760h143l-317 -991h-133l-277 768l-276 -768h-133z" />
<glyph unicode="x" horiz-adv-x="989" d="M61 0l351 510l-330 481h166l248 -356l247 356h164l-329 -481l350 -510h-166l-266 391l-269 -391h-166z" />
<glyph unicode="y" horiz-adv-x="997" d="M61 991h146l289 -796l292 796h148l-459 -1235q-77 -207 -274 -207h-4h-60l2 138l41 -2q70 0 106 26.5t60 93.5l74 195z" />
<glyph unicode="z" horiz-adv-x="974" d="M102 0v129l578 729h-530v133h712v-123l-581 -733h581v-135h-760z" />
<glyph unicode="{" horiz-adv-x="684" d="M82 655v121q193 -2 192 201q0 37 -15 111.5t-15 111.5q0 193 83 284t275 91v-125q-131 0 -180 -72q-39 -57 -39 -194q0 -35 16.5 -102.5t16.5 -102.5q0 -193 -125 -264q125 -68 125 -262q0 -37 -16.5 -107t-16.5 -106q0 -127 43 -189q53 -72 176 -71v-125 q-358 0 -358 362q0 41 15 119t15 119q0 203 -192 200z" />
<glyph unicode="|" horiz-adv-x="534" d="M195 -156v1741h145v-1741h-145z" />
<glyph unicode="}" horiz-adv-x="684" d="M82 -20q123 0 174 71q45 61 45 189q0 37 -17.5 106.5t-17.5 106.5q0 195 127 262q-125 72 -125 264q0 35 15.5 102.5t15.5 102.5q0 137 -39 194q-47 72 -178 72v125q193 0 274.5 -91t81.5 -284q0 -37 -14 -111.5t-14 -111.5q0 -203 192 -201v-121q-193 2 -192 -200 q0 -41 15 -119t15 -119q0 -362 -358 -362v125z" />
<glyph unicode="~" horiz-adv-x="952" d="M74 600q115 137 235 137q76 0 178.5 -65.5t155.5 -65.5q61 0 137 92l99 -94q-129 -135 -240 -135q-74 0 -176.5 65.5t-157.5 65.5q-66 0 -131 -90z" />
<glyph unicode="&#xa1;" horiz-adv-x="573" d="M164 911q0 41 29.5 71t72.5 30t73 -30t30 -71q0 -43 -30 -72.5t-73 -29.5t-72.5 29.5t-29.5 72.5zM195 256l10 399h121l10 -399v-690h-141v690z" />
<glyph unicode="&#xa2;" horiz-adv-x="962" d="M125 444q0 207 102.5 331t280.5 130l31 144l104 -23l-29 -127q111 -22 224 -145l-90 -82q-86 94 -158 110l-144 -671q37 -10 78 -11q119 0 224 117l90 -82q-80 -86 -148.5 -118.5t-165.5 -32.5q-53 0 -102 12l-33 -154l-102 23l37 170q-199 113 -199 409zM254 444 q0 -197 96 -282l133 624q-229 -31 -229 -342z" />
<glyph unicode="&#xa3;" horiz-adv-x="989" d="M94 586l27 133h88q-25 125 -25 196q-2 170 90.5 280t260.5 110q129 0 221 -54q63 -37 141 -125l-102 -88q-61 72 -107 97q-61 37 -153 36q-215 0 -216 -251q0 -68 27 -201h238l-29 -133h-182q18 -104 18 -183q0 -127 -49 -266h528v-137h-688v102q76 168 76 301 q0 70 -22 183h-142z" />
<glyph unicode="&#xa4;" horiz-adv-x="1198" d="M111 432l26 115h101q-2 61 -2 137h-125l26 115h105q23 227 155 364q141 145 363 146q203 0 338 -123l-68 -115q-113 111 -270 111q-168 0 -271 -109q-94 -100 -114 -274h475l-27 -115h-456v-51q0 -39 2 -86h481l-27 -115h-438q33 -145 131 -233t244 -88q160 0 272 110 l72 -115q-135 -123 -344 -122q-201 0 -336 123.5t-172 324.5h-141z" />
<glyph unicode="&#xa5;" horiz-adv-x="1116" d="M63 1300h154l342 -692l340 692h154l-285 -581h158l-29 -131h-195l-53 -111h277l-29 -133h-270v-340h-138v340h-299l29 133h250l-53 111h-226l29 131h131z" />
<glyph unicode="&#xa6;" horiz-adv-x="636" d="M246 -156v791h125v-791h-125zM246 797v790h125v-790h-125z" />
<glyph unicode="&#xa7;" horiz-adv-x="1048" d="M133 555q0 180 111 287q-70 80 -70 205q0 164 99.5 268t256.5 104q215 0 377 -299l-123 -65q-121 225 -254 225q-98 0 -157.5 -63.5t-59.5 -169.5q0 -84 47.5 -127t180.5 -76q374 -90 374 -387q0 -182 -108 -289q68 -78 67 -203q0 -164 -99 -269.5t-255 -105.5 q-217 0 -379 301l123 66q123 -227 256 -227q96 0 156.5 64.5t60.5 170.5q0 84 -48 127t-181 76q-375 90 -375 387zM272 555q0 -188 269 -252q90 -23 149 -51q88 66 88 205q0 188 -270 252q-90 23 -150 49q-86 -63 -86 -203z" />
<glyph unicode="&#xa8;" horiz-adv-x="899" d="M133 1214q0 43 31 74t74 31t73.5 -31t30.5 -74t-30.5 -73.5t-73.5 -30.5t-74 30.5t-31 73.5zM557 1214q0 43 30.5 74t74.5 31q43 0 73.5 -31t30.5 -74t-30.5 -73.5t-73.5 -30.5t-74 30.5t-31 73.5z" />
<glyph unicode="&#xa9;" horiz-adv-x="1622" d="M160 780q0 270 191.5 461t459.5 191q270 0 460.5 -191t190.5 -461q0 -268 -190.5 -458.5t-460.5 -190.5q-268 0 -459.5 190.5t-191.5 458.5zM285 780q0 -217 154.5 -371.5t371.5 -154.5q219 0 372.5 154.5t153.5 371.5q0 219 -153.5 374t-372.5 155q-217 0 -371.5 -155 t-154.5 -374zM530 782q0 158 66 256q76 117 229 117q129 0 242 -135l-102 -84q-72 86 -140 86q-162 0 -161 -240q0 -242 161 -241q68 0 140 88l102 -86q-115 -133 -242 -133q-154 0 -229 114q-66 98 -66 258z" />
<glyph unicode="&#xaa;" horiz-adv-x="821" d="M92 864q0 104 82 178t197 74h133q41 0 71 27v65q0 45 -39.5 77t-103.5 32q-154 0 -190 -125l-125 37q33 109 129 168q84 51 186 51q115 0 195 -69.5t80 -170.5v-473l22 -76l-125 -36l-16 51q-96 -61 -217 -62q-115 0 -197 74t-82 178zM223 864q0 -49 43 -85t105 -36 q116 0 204 86v166q-33 -10 -71 -10h-133q-61 0 -104.5 -36t-43.5 -85zM258 397v129h301v-129h-301z" />
<glyph unicode="&#xab;" horiz-adv-x="985" d="M92 473v111l436 417l2 -186l-301 -287l301 -286v-189zM434 473v111l438 417v-186l-301 -287l301 -286v-189z" />
<glyph unicode="&#xac;" horiz-adv-x="1067" d="M92 467v129h862v-406h-129v277h-733z" />
<glyph unicode="&#xad;" horiz-adv-x="813" d="M133 498v125h547v-125h-547z" />
<glyph unicode="&#xae;" horiz-adv-x="1622" d="M158 778q0 270 191.5 462t461.5 192t461.5 -192t191.5 -462t-191.5 -460.5t-461.5 -190.5t-461.5 190.5t-191.5 460.5zM274 778q0 -221 158 -378.5t379 -157.5q223 0 381 157.5t158 378.5q0 223 -158 381t-381 158q-221 0 -379 -158t-158 -381zM573 420v719h261 q246 0 245 -211q0 -160 -141 -201l8 -14l176 -293h-143l-139 227q-41 68 -74 68h-68v-295h-125zM698 840h136q122 0 122 88t-122 88h-136v-176z" />
<glyph unicode="&#xaf;" horiz-adv-x="991" d="M180 1196v129h633v-129h-633z" />
<glyph unicode="&#xb0;" horiz-adv-x="585" d="M92 1354q0 82 58.5 141t142.5 59q82 0 141.5 -59t59.5 -141q0 -84 -59.5 -142.5t-141.5 -58.5q-84 0 -142.5 58.5t-58.5 142.5zM203 1354q0 -39 26.5 -64.5t63.5 -25.5t63.5 25.5t26.5 64.5q0 37 -26.5 63.5t-63.5 26.5t-63.5 -26.5t-26.5 -63.5z" />
<glyph unicode="&#xb1;" horiz-adv-x="1067" d="M113 0v137h841v-137h-841zM113 561v139h350v344h141v-344h350v-139h-350v-344h-141v344h-350z" />
<glyph unicode="&#xb2;" horiz-adv-x="681" d="M82 561v94q70 184 209 318q188 176 188 246q0 106 -127 106q-88 0 -151 -119l-107 56q98 182 258 182q98 0 168 -55q80 -63 80 -170q0 -72 -47 -141.5t-178 -192.5q-88 -82 -150 -205h375v-119h-518z" />
<glyph unicode="&#xb3;" horiz-adv-x="675" d="M76 766l117 37l8 -31q33 -96 133 -96q57 0 98 42t41 99q0 59 -41 101.5t-98 42.5h-64v118h56q55 0 93 36t38 87t-38 87t-93 36q-94 0 -125 -84l-11 -31l-114 39l10 31q27 74 92.5 120t147.5 46q104 0 178 -71.5t74 -172.5q0 -109 -84 -180q100 -78 100 -205 q0 -106 -77 -183t-183 -77q-84 0 -152.5 49t-95.5 129z" />
<glyph unicode="&#xb4;" horiz-adv-x="595" d="M133 1116l174 299h156l-195 -299h-135z" />
<glyph unicode="&#xb6;" horiz-adv-x="1161" d="M113 1022q0 170 118.5 289t288.5 119h467v-1739h-141v1571h-205v-1571h-141v925q-162 8 -274.5 126t-112.5 280z" />
<glyph unicode="&#xb7;" horiz-adv-x="485" d="M133 543q0 45 32 76.5t77 31.5t77.5 -31.5t32.5 -76.5t-32.5 -78t-77.5 -33t-77 33t-32 78z" />
<glyph unicode="&#xb8;" horiz-adv-x="985" d="M319 -401l179 262l-68 147l111 43l92 -201l-141 -251h-173z" />
<glyph unicode="&#xb9;" horiz-adv-x="524" d="M66 1292l247 150h68v-881h-119v713l-137 -84z" />
<glyph unicode="&#xba;" horiz-adv-x="872" d="M92 1028v2q0 176 58 270q88 147 286 148q199 0 287 -148q57 -94 57 -270q0 -174 -57 -268q-88 -147 -287 -148q-199 0 -286 148q-57 94 -58 266zM223 1030q0 -139 39 -203q51 -84 174 -84q125 0 176 84q37 64 37 203t-37 203q-51 84 -176 84t-174 -84q-39 -63 -39 -203z M287 397v129h301v-129h-301z" />
<glyph unicode="&#xbb;" horiz-adv-x="985" d="M113 53v189l299 286l-299 287v186l438 -417v-111zM455 53v189l299 286l-299 287v186l438 -417v-111z" />
<glyph unicode="&#xbc;" horiz-adv-x="1515" d="M66 1292l247 150h68v-881h-119v713l-137 -84zM346 0l633 1430h123l-631 -1430h-125zM887 215v102l356 566h141l-344 -547h197v268l123 -24v-244h55v-121h-55v-215h-123v215h-350z" />
<glyph unicode="&#xbd;" horiz-adv-x="1593" d="M66 1292l247 150h68v-881h-119v713l-137 -84zM346 0l633 1430h123l-631 -1430h-125zM987 0v94q68 186 209 318q186 176 186 247q0 104 -125 105q-88 0 -151 -119l-107 55q96 184 258 185q98 0 168 -58q78 -63 78 -168q0 -74 -47 -142t-176 -191q-88 -84 -152 -205h377 v-121h-518z" />
<glyph unicode="&#xbe;" horiz-adv-x="1681" d="M76 766l117 37l8 -31q33 -96 133 -96q57 0 98 42t41 99q0 59 -41 101.5t-98 42.5h-64v118h56q55 0 93 36t38 87t-38 87t-93 36q-94 0 -125 -84l-11 -31l-114 39l10 31q27 74 92.5 120t147.5 46q104 0 178 -71.5t74 -172.5q0 -109 -84 -180q100 -78 100 -205 q0 -106 -77 -183t-183 -77q-84 0 -152.5 49t-95.5 129zM510 0l633 1430h125l-633 -1430h-125zM1090 215v102l356 566h143l-344 -547h197v268l121 -24v-244h57v-121h-57v-215h-121v215h-352z" />
<glyph unicode="&#xbf;" horiz-adv-x="1017" d="M123 -70q0 178 176 283q88 53 121 94q45 55 49 150l8 182h101q16 -131 16 -182q0 -133 -57 -215q-37 -53 -122 -106.5t-108 -78.5q-47 -49 -47 -127q0 -113 76 -177t190 -64q115 0 193 63q86 70 86 191h131q0 -180 -125 -291q-117 -102 -285 -103q-168 0 -282 103 q-121 109 -121 278zM422 911q0 41 29.5 71t72.5 30q41 0 71 -30t30 -71q0 -43 -30 -72.5t-71 -29.5q-43 0 -72.5 29.5t-29.5 72.5z" />
<glyph unicode="&#xc0;" d="M41 0l553 1430h156l553 -1430h-154l-164 424h-627l-165 -424h-152zM410 561h524l-262 676zM430 1886h156l176 -299h-137z" />
<glyph unicode="&#xc1;" d="M41 0l553 1430h156l553 -1430h-154l-164 424h-627l-165 -424h-152zM410 561h524l-262 676zM563 1587l176 299h156l-195 -299h-137z" />
<glyph unicode="&#xc2;" d="M41 0l553 1430h156l553 -1430h-154l-164 424h-627l-165 -424h-152zM358 1587l215 299h195l215 -299h-174l-137 213l-137 -213h-177zM410 561h524l-262 676z" />
<glyph unicode="&#xc3;" d="M41 0l553 1430h156l553 -1430h-154l-164 424h-627l-165 -424h-152zM336 1655q92 119 192 119q70 0 174 -54q76 -37 117 -37q31 0 49 17q10 8 45 53l101 -82l-19 -22q-74 -94 -172 -95q-59 0 -159.5 44t-135.5 44q-29 0 -47 -16q-10 -8 -45 -53zM410 561h524l-262 676z " />
<glyph unicode="&#xc4;" d="M41 0l553 1430h156l553 -1430h-154l-164 424h-627l-165 -424h-152zM352 1692q0 43 31 73.5t74 30.5t73.5 -30.5t30.5 -73.5t-30.5 -74t-73.5 -31t-74 31t-31 74zM410 561h524l-262 676zM776 1692q0 43 31 73.5t74 30.5t73.5 -30.5t30.5 -73.5t-30.5 -74t-73.5 -31t-74 31 t-31 74z" />
<glyph unicode="&#xc5;" d="M41 0l553 1430h156l553 -1430h-154l-164 424h-627l-165 -424h-152zM410 561h524l-262 676zM432 1763q0 98 70.5 169t169.5 71q98 0 167.5 -71t69.5 -169t-69.5 -167.5t-167.5 -69.5t-169 69.5t-71 167.5zM555 1763q0 -49 34 -82.5t83 -33.5t82.5 33.5t33.5 82.5t-33.5 83 t-82.5 34t-83 -34t-34 -83z" />
<glyph unicode="&#xc6;" horiz-adv-x="1882" d="M31 0l688 1430h1071v-142h-727v-473h629v-141h-629v-533h727v-141h-870v424h-527l-205 -424h-157zM459 561h461v727h-111z" />
<glyph unicode="&#xc7;" horiz-adv-x="1202" d="M92 715q0 315 113 489q158 244 454 244q139 0 238.5 -53.5t212.5 -188.5l-109 -90q-92 111 -164.5 151t-177.5 40q-219 0 -333 -179q-92 -139 -93 -413q0 -274 93 -414q115 -178 333 -178q104 0 177 40t165 150l109 -90q-178 -213 -371 -235l54 -127l-140 -262h-159 l176 272l-49 113q-270 16 -416 241q-113 174 -113 490z" />
<glyph unicode="&#xc8;" horiz-adv-x="1206" d="M174 0v1430h909v-142h-768v-473h672v-141h-672v-533h768v-141h-909zM393 1886h156l174 -299h-135z" />
<glyph unicode="&#xc9;" horiz-adv-x="1206" d="M174 0v1430h909v-142h-768v-473h672v-141h-672v-533h768v-141h-909zM504 1587l174 299h156l-195 -299h-135z" />
<glyph unicode="&#xca;" horiz-adv-x="1206" d="M174 0v1430h909v-142h-768v-473h672v-141h-672v-533h768v-141h-909zM309 1587l215 299h195l213 -299h-174l-137 213l-138 -213h-174z" />
<glyph unicode="&#xcb;" horiz-adv-x="1206" d="M174 0v1430h909v-142h-768v-473h672v-141h-672v-533h768v-141h-909zM303 1692q0 43 31 73.5t74 30.5t73.5 -30.5t30.5 -73.5t-30.5 -74t-73.5 -31t-74 31t-31 74zM727 1692q0 43 30.5 73.5t73.5 30.5t74 -30.5t31 -73.5t-31 -74t-74 -31t-73.5 31t-30.5 74z" />
<glyph unicode="&#xcc;" horiz-adv-x="493" d="M31 1886h155l174 -299h-135zM166 0v1430h145v-1430h-145z" />
<glyph unicode="&#xcd;" horiz-adv-x="493" d="M133 1587l174 299h156l-195 -299h-135zM172 0v1430h145v-1430h-145z" />
<glyph unicode="&#xce;" horiz-adv-x="663" d="M20 1587l216 299h194l213 -299h-174l-137 213l-137 -213h-175zM256 0v1430h143v-1430h-143z" />
<glyph unicode="&#xcf;" horiz-adv-x="632" d="M20 1692q0 43 31 73.5t74 30.5t73.5 -30.5t30.5 -73.5t-30.5 -74t-73.5 -31t-74 31t-31 74zM244 0v1430h145v-1430h-145zM403 1692q0 43 31 73.5t74 30.5t73.5 -30.5t30.5 -73.5t-30.5 -74t-73.5 -31t-74 31t-31 74z" />
<glyph unicode="&#xd0;" horiz-adv-x="1349" d="M96 641v141h86v648h430q254 0 381 -68q166 -90 197 -324q16 -122 16 -323t-16 -324q-31 -233 -197 -323q-127 -68 -381 -68h-430v641h-86zM326 141h286q209 0 308 49q106 51 129 220q14 112 14 305t-14 305q-23 168 -129 221q-98 47 -308 47h-286v-506h327v-141h-327 v-500z" />
<glyph unicode="&#xd1;" horiz-adv-x="1290" d="M154 0v1430h141l700 -1156v1156h142v-1430h-142l-700 1155v-1155h-141zM315 1661q92 119 193 119q70 0 174 -51q76 -37 117 -37q31 0 49 16q8 6 45 51l100 -80l-18 -24q-74 -94 -172 -94q-59 0 -159.5 44t-135.5 44q-29 0 -49 -17q-8 -8 -43 -53z" />
<glyph unicode="&#xd2;" horiz-adv-x="1363" d="M113 715q0 317 112 489q160 244 457 244q299 0 457 -244q112 -174 112 -489t-112 -490q-158 -244 -457 -243q-299 0 -457 243q-113 174 -112 490zM256 715q0 -274 90 -414q115 -178 336 -178t336 178q92 140 92 414t-92 413q-115 178 -336 179q-221 0 -336 -179 q-90 -139 -90 -413zM502 1886h155l174 -299h-135z" />
<glyph unicode="&#xd3;" horiz-adv-x="1363" d="M113 715q0 317 112 489q160 244 457 244q299 0 457 -244q112 -174 112 -489t-112 -490q-158 -244 -457 -243q-299 0 -457 243q-113 174 -112 490zM256 715q0 -274 90 -414q115 -178 336 -178t336 178q92 140 92 414t-92 413q-115 178 -336 179q-221 0 -336 -179 q-90 -139 -90 -413zM561 1587l174 299h156l-195 -299h-135z" />
<glyph unicode="&#xd4;" horiz-adv-x="1363" d="M113 715q0 317 112 489q160 244 457 244q299 0 457 -244q112 -174 112 -489t-112 -490q-158 -244 -457 -243q-299 0 -457 243q-113 174 -112 490zM256 715q0 -274 90 -414q115 -178 336 -178t336 178q92 140 92 414t-92 413q-115 178 -336 179q-221 0 -336 -179 q-90 -139 -90 -413zM373 1587l213 299h196l213 -299h-174l-137 213l-137 -213h-174z" />
<glyph unicode="&#xd5;" horiz-adv-x="1363" d="M113 715q0 317 112 489q160 244 457 244q299 0 457 -244q112 -174 112 -489t-112 -490q-158 -244 -457 -243q-299 0 -457 243q-113 174 -112 490zM256 715q0 -274 90 -414q115 -178 336 -178t336 178q92 140 92 414t-92 413q-115 178 -336 179q-221 0 -336 -179 q-90 -139 -90 -413zM334 1655q92 119 192 119q68 0 174 -54q76 -37 117 -37q31 0 49 17q8 8 43 53l101 -82l-17 -22q-74 -94 -174 -95q-59 0 -158.5 44t-136.5 44q-29 0 -47 -16q-8 -8 -43 -53z" />
<glyph unicode="&#xd6;" horiz-adv-x="1363" d="M113 715q0 317 112 489q160 244 457 244q299 0 457 -244q112 -174 112 -489t-112 -490q-158 -244 -457 -243q-299 0 -457 243q-113 174 -112 490zM256 715q0 -274 90 -414q115 -178 336 -178t336 178q92 140 92 414t-92 413q-115 178 -336 179q-221 0 -336 -179 q-90 -139 -90 -413zM358 1692q0 43 31 73.5t74 30.5t73.5 -30.5t30.5 -73.5t-30.5 -74t-73.5 -31t-74 31t-31 74zM782 1692q0 43 31 73.5t74 30.5t73.5 -30.5t30.5 -73.5t-30.5 -74t-73.5 -31t-74 31t-31 74z" />
<glyph unicode="&#xd7;" horiz-adv-x="890" d="M94 311l248 250l-248 248l103 102l247 -247l250 247l103 -102l-250 -248l250 -250l-103 -102l-250 250l-247 -250z" />
<glyph unicode="&#xd8;" horiz-adv-x="1323" d="M113 715q0 313 123 504q147 229 446 229q154 0 268 -62l25 44h155l-69 -125q190 -193 190 -590q0 -313 -123 -504q-147 -229 -446 -229q-178 0 -305 84l-37 -66h-156l88 160q-160 195 -159 555zM256 715q0 -268 92 -418l533 965q-84 45 -199 45q-426 0 -426 -592z M446 190q94 -68 236 -67q428 0 428 592q0 307 -121 459z" />
<glyph unicode="&#xd9;" horiz-adv-x="1359" d="M164 618v812h141v-812q0 -233 68 -344q90 -152 307 -151q217 0 307 151q68 111 68 344v812h141v-812q0 -272 -86 -415q-131 -219 -430 -221q-299 0 -430 221q-86 143 -86 415zM512 1886h156l174 -299h-135z" />
<glyph unicode="&#xda;" horiz-adv-x="1359" d="M164 618v812h141v-812q0 -233 68 -344q90 -152 307 -151q217 0 307 151q68 111 68 344v812h141v-812q0 -272 -86 -415q-131 -219 -430 -221q-299 0 -430 221q-86 143 -86 415zM549 1587l174 299h156l-195 -299h-135z" />
<glyph unicode="&#xdb;" horiz-adv-x="1359" d="M164 618v812h141v-812q0 -233 68 -344q90 -152 307 -151q217 0 307 151q68 111 68 344v812h141v-812q0 -272 -86 -415q-131 -219 -430 -221q-299 0 -430 221q-86 143 -86 415zM371 1587l213 299h196l213 -299h-174l-137 213l-137 -213h-174z" />
<glyph unicode="&#xdc;" horiz-adv-x="1359" d="M164 618v812h141v-812q0 -233 68 -344q90 -152 307 -151q217 0 307 151q68 111 68 344v812h141v-812q0 -272 -86 -415q-131 -219 -430 -221q-299 0 -430 221q-86 143 -86 415zM369 1692q0 43 30.5 73.5t73.5 30.5t74 -30.5t31 -73.5t-31 -74t-74 -31t-73.5 31t-30.5 74z M793 1692q0 43 30.5 73.5t73.5 30.5t73.5 -30.5t30.5 -73.5t-30.5 -74t-73.5 -31t-73.5 31t-30.5 74z" />
<glyph unicode="&#xdd;" horiz-adv-x="1222" d="M72 1430h157l383 -777l381 777h158l-469 -957v-473h-141v477zM465 1587l174 299h156l-195 -299h-135z" />
<glyph unicode="&#xde;" horiz-adv-x="1277" d="M184 0v1430h142v-293h385q201 0 309 -66q166 -105 166 -334t-166 -331q-109 -68 -309 -68h-385v-338h-142zM326 479h385q160 0 233 45q100 61 100 213t-100 215q-74 45 -233 45h-385v-518z" />
<glyph unicode="&#xdf;" horiz-adv-x="1171" d="M205 0v1014q0 416 354 416q121 0 205 -84t84 -203q0 -106 -72 -189q230 -98 232 -458q0 -213 -70 -326q-104 -168 -356 -174l-4 135q178 6 243 111q49 80 49 252q0 174 -49 254q-63 102 -237 108h-9v137q135 29 136 150q0 63 -44 107t-108 44q-125 0 -176 -82 q-41 -66 -41 -198v-1014h-137z" />
<glyph unicode="&#xe0;" horiz-adv-x="999" d="M113 279q0 137 100 221q92 78 231 78h172q68 0 105 34v105q0 78 -70 119q-57 35 -139 34q-190 0 -238 -153l-124 47q74 242 366 242q137 0 234 -74q106 -82 106 -215v-602q15 -44 31 -95l-131 -40l-25 81q-123 -82 -287 -81q-133 0 -229 81q-102 88 -102 218zM250 279 q0 -74 59.5 -120t134.5 -46q166 0 277 98v262q-37 -23 -92 -22h-187q-76 0 -134 -48.5t-58 -123.5zM307 1415h156l174 -299h-135z" />
<glyph unicode="&#xe1;" horiz-adv-x="999" d="M113 279q0 137 100 221q92 78 231 78h172q68 0 105 34v105q0 78 -70 119q-57 35 -139 34q-190 0 -238 -153l-124 47q74 242 366 242q137 0 234 -74q106 -82 106 -215v-602q15 -44 31 -95l-131 -40l-25 81q-123 -82 -287 -81q-133 0 -229 81q-102 88 -102 218zM250 279 q0 -74 59.5 -120t134.5 -46q166 0 277 98v262q-37 -23 -92 -22h-187q-76 0 -134 -48.5t-58 -123.5zM365 1116l174 299h155l-194 -299h-135z" />
<glyph unicode="&#xe2;" horiz-adv-x="999" d="M113 279q0 137 100 221q92 78 231 78h172q68 0 105 34v105q0 78 -70 119q-57 35 -139 34q-190 0 -238 -153l-124 47q74 242 366 242q137 0 234 -74q106 -82 106 -215v-602q15 -44 31 -95l-131 -40l-25 81q-123 -82 -287 -81q-133 0 -229 81q-102 88 -102 218zM221 1092 l195 299h194l193 -299h-154l-137 213l-137 -213h-154zM250 279q0 -74 59.5 -120t134.5 -46q166 0 277 98v262q-37 -23 -92 -22h-187q-76 0 -134 -48.5t-58 -123.5z" />
<glyph unicode="&#xe3;" horiz-adv-x="999" d="M113 279q0 137 100 221q92 78 231 78h172q68 0 105 34v105q0 78 -70 119q-57 35 -139 34q-190 0 -238 -153l-124 47q74 242 366 242q137 0 234 -74q106 -82 106 -215v-602q15 -44 31 -95l-131 -40l-25 81q-123 -82 -287 -81q-133 0 -229 81q-102 88 -102 218zM184 1202 q92 119 193 119q59 0 155.5 -44t135.5 -44q31 0 55 20q4 4 37 50l100 -82q-90 -119 -190 -119q-59 0 -158.5 44t-136.5 44t-90 -70zM250 279q0 -74 59.5 -120t134.5 -46q166 0 277 98v262q-37 -23 -92 -22h-187q-76 0 -134 -48.5t-58 -123.5z" />
<glyph unicode="&#xe4;" horiz-adv-x="999" d="M113 279q0 137 100 221q92 78 231 78h172q68 0 105 34v105q0 78 -70 119q-57 35 -139 34q-190 0 -238 -153l-124 47q74 242 366 242q137 0 234 -74q106 -82 106 -215v-602q15 -44 31 -95l-131 -40l-25 81q-123 -82 -287 -81q-133 0 -229 81q-102 88 -102 218zM203 1214 q0 43 29.5 74t72.5 31t74 -31t31 -74t-31 -73.5t-74 -30.5t-72.5 30.5t-29.5 73.5zM250 279q0 -74 59.5 -120t134.5 -46q166 0 277 98v262q-37 -23 -92 -22h-187q-76 0 -134 -48.5t-58 -123.5zM627 1214q0 43 29.5 74t74.5 31q43 0 73 -31t30 -74t-30 -73.5t-73 -30.5 q-45 0 -74.5 30.5t-29.5 73.5z" />
<glyph unicode="&#xe5;" horiz-adv-x="999" d="M113 279q0 137 100 221q92 78 231 78h172q68 0 105 34v105q0 78 -70 119q-57 35 -139 34q-190 0 -238 -153l-124 47q74 242 366 242q137 0 234 -74q106 -82 106 -215v-602q15 -44 31 -95l-131 -40l-25 81q-123 -82 -287 -81q-133 0 -229 81q-102 88 -102 218zM250 279 q0 -74 59.5 -120t134.5 -46q166 0 277 98v262q-37 -23 -92 -22h-187q-76 0 -134 -48.5t-58 -123.5zM287 1329q0 98 69.5 168t169.5 70q98 0 168 -70t70 -168t-69.5 -168.5t-168.5 -70.5q-100 0 -169.5 70.5t-69.5 168.5zM408 1329q0 -49 34.5 -83t83.5 -34q47 0 82 34t35 83 t-35 83t-82 34q-49 0 -83.5 -34t-34.5 -83z" />
<glyph unicode="&#xe6;" horiz-adv-x="1611" d="M92 279q0 125 101.5 215t240.5 90h168q61 0 109 45l2 10l-6 90q-4 57 -59.5 98t-135.5 41q-86 0 -154 -39q-80 -45 -104 -129l-133 39q41 133 162 205q102 59 229 60q197 0 291 -144q117 143 330 144q213 0 327 -175q43 -68 56 -184q6 -53 4 -194h-678q4 -150 53 -222 q76 -115 256 -114q168 0 258 114l109 -82q-131 -166 -367 -165q-229 0 -350 143q-162 -145 -367 -145q-141 0 -241.5 87t-100.5 212zM229 279q0 -66 59.5 -115t145.5 -49q168 0 299 135q-29 86 -28 217q-47 -16 -103 -16h-168q-86 0 -145.5 -52.5t-59.5 -119.5zM846 584h536 q-6 125 -39 172q-74 113 -210 112q-164 0 -238 -112q-39 -59 -49 -172z" />
<glyph unicode="&#xe7;" horiz-adv-x="974" d="M92 492q0 223 109 360q119 150 336 149q113 0 190 -40q68 -35 152 -127l-97 -91q-61 70 -108 97q-57 33 -137 32q-301 0 -301 -380q0 -381 301 -381q80 0 137 34q47 27 108 95l97 -90q-133 -143 -269 -162l64 -138l-142 -251h-172l179 262l-58 125q-188 18 -293 164 q-96 135 -96 342z" />
<glyph unicode="&#xe8;" horiz-adv-x="1032" d="M113 489q0 227 96 363q113 156 328 156q195 0 294 -144q91 -124 91 -327l-2 -88h-670q8 -334 305 -334q166 0 256 114l92 -92q-121 -156 -348 -155q-442 0 -442 507zM254 582h530q-14 293 -247 292q-258 0 -283 -292zM328 1415h155l174 -299h-135z" />
<glyph unicode="&#xe9;" horiz-adv-x="1032" d="M113 489q0 227 96 363q113 156 328 156q195 0 294 -144q91 -124 91 -327l-2 -88h-670q8 -334 305 -334q166 0 256 114l92 -92q-121 -156 -348 -155q-442 0 -442 507zM254 582h530q-14 293 -247 292q-258 0 -283 -292zM440 1116l174 299h156l-195 -299h-135z" />
<glyph unicode="&#xea;" horiz-adv-x="1032" d="M113 489q0 227 96 363q113 156 328 156q195 0 294 -144q91 -124 91 -327l-2 -88h-670q8 -334 305 -334q166 0 256 114l92 -92q-121 -156 -348 -155q-442 0 -442 507zM240 1092l194 299h195l192 -299h-153l-138 213l-137 -213h-153zM254 582h530q-14 293 -247 292 q-258 0 -283 -292z" />
<glyph unicode="&#xeb;" horiz-adv-x="1032" d="M113 489q0 227 96 363q113 156 328 156q195 0 294 -144q91 -124 91 -327l-2 -88h-670q8 -334 305 -334q166 0 256 114l92 -92q-121 -156 -348 -155q-442 0 -442 507zM221 1214q0 43 30 74t73 31t73.5 -31t30.5 -74t-30.5 -73.5t-73.5 -30.5t-73 30.5t-30 73.5zM254 582 h530q-14 293 -247 292q-258 0 -283 -292zM625 1214q0 43 29.5 74t74.5 31q43 0 72.5 -31t29.5 -74t-29.5 -73.5t-72.5 -30.5q-45 0 -74.5 30.5t-29.5 73.5z" />
<glyph unicode="&#xec;" horiz-adv-x="475" d="M29 1415h155l174 -299h-135zM168 0v991h139v-991h-139z" />
<glyph unicode="&#xed;" horiz-adv-x="475" d="M127 1116l174 299h156l-195 -299h-135zM168 0v991h139v-991h-139z" />
<glyph unicode="&#xee;" horiz-adv-x="475" d="M-51 1092l194 299h195l192 -299h-153l-137 213l-138 -213h-153zM168 0v991h139v-991h-139z" />
<glyph unicode="&#xef;" horiz-adv-x="475" d="M-59 1214q0 43 29.5 74t72.5 31t73.5 -31t30.5 -74t-30.5 -73.5t-73.5 -30.5t-72.5 30.5t-29.5 73.5zM168 0v991h139v-991h-139zM324 1214q0 43 29.5 74t74.5 31q43 0 72.5 -31t29.5 -74t-29.5 -73.5t-72.5 -30.5q-45 0 -74.5 30.5t-29.5 73.5z" />
<glyph unicode="&#xf0;" horiz-adv-x="1062" d="M113 494q0 217 69 333q109 178 350 179q72 0 136 -19l-72 162h-248v129h191l-113 258h141l113 -258h182v-129h-125l105 -223l49 -88q59 -113 59 -344q0 -217 -69 -334q-106 -178 -349 -178q-242 0 -350 178q-70 117 -69 334zM250 494q0 -180 49 -265q68 -113 231 -112 q166 0 234 112q49 85 49 265t-49 262q-68 113 -234 112q-164 0 -231 -112q-49 -82 -49 -262z" />
<glyph unicode="&#xf1;" horiz-adv-x="1030" d="M133 0v991h137v-94q94 111 248 111q399 0 400 -422v-586h-136v575q0 152 -55 222q-61 76 -209 75q-109 0 -178.5 -75.5t-69.5 -184.5v-612h-137zM195 1202q92 119 192 119q59 0 155.5 -44t135.5 -44q31 0 55 20q4 4 37 50l100 -82q-90 -119 -190 -119q-59 0 -158.5 44 t-136.5 44t-90 -70z" />
<glyph unicode="&#xf2;" horiz-adv-x="1062" d="M113 494q0 514 419 514q418 0 418 -512q0 -510 -418 -510q-420 0 -419 508zM250 494q0 -176 51 -263q66 -113 229 -112q166 0 232 112q51 87 51 263q0 178 -51 266q-66 113 -232 112q-164 0 -229 -112q-51 -88 -51 -266zM322 1415h155l174 -299h-135z" />
<glyph unicode="&#xf3;" horiz-adv-x="1062" d="M113 494q0 514 419 514q418 0 418 -512q0 -510 -418 -510q-420 0 -419 508zM250 494q0 -176 51 -263q66 -113 229 -112q166 0 232 112q51 87 51 263q0 178 -51 266q-66 113 -232 112q-164 0 -229 -112q-51 -88 -51 -266zM438 1116l174 299h156l-195 -299h-135z" />
<glyph unicode="&#xf4;" horiz-adv-x="1062" d="M113 494q0 514 419 514q418 0 418 -512q0 -510 -418 -510q-420 0 -419 508zM231 1092l195 299h195l192 -299h-154l-137 213l-137 -213h-154zM250 494q0 -176 51 -263q66 -113 229 -112q166 0 232 112q51 87 51 263q0 178 -51 266q-66 113 -232 112q-164 0 -229 -112 q-51 -88 -51 -266z" />
<glyph unicode="&#xf5;" horiz-adv-x="1062" d="M113 494q0 514 419 514q418 0 418 -512q0 -510 -418 -510q-420 0 -419 508zM199 1202q92 119 192 119q59 0 155.5 -44t135.5 -44q31 0 55 20q4 4 37 50l100 -82q-90 -119 -190 -119q-59 0 -158.5 44t-136.5 44t-90 -70zM250 494q0 -176 51 -263q66 -113 229 -112 q166 0 232 112q51 87 51 263q0 178 -51 266q-66 113 -232 112q-164 0 -229 -112q-51 -88 -51 -266z" />
<glyph unicode="&#xf6;" horiz-adv-x="1062" d="M113 494q0 514 419 514q418 0 418 -512q0 -510 -418 -510q-420 0 -419 508zM231 1214q0 43 30 74t73 31t73.5 -31t30.5 -74t-30.5 -73.5t-73.5 -30.5t-73 30.5t-30 73.5zM250 494q0 -176 51 -263q66 -113 229 -112q166 0 232 112q51 87 51 263q0 178 -51 266 q-66 113 -232 112q-164 0 -229 -112q-51 -88 -51 -266zM635 1214q0 43 29.5 74t74.5 31q43 0 73 -31t30 -74t-30 -73.5t-73 -30.5q-45 0 -74.5 30.5t-29.5 73.5z" />
<glyph unicode="&#xf7;" horiz-adv-x="1052" d="M113 498v125h827v-125h-827zM424 244q0 41 28.5 69.5t69.5 28.5t70 -28.5t29 -69.5q0 -43 -29 -72t-70 -29t-69.5 29t-28.5 72zM424 879q0 41 28.5 70.5t69.5 29.5t70 -29.5t29 -70.5t-29 -70t-70 -29t-69.5 29t-28.5 70z" />
<glyph unicode="&#xf8;" horiz-adv-x="1021" d="M92 487q0 213 70 328q109 176 350 176q98 0 182 -35l23 41h145l-61 -110q129 -119 129 -400q0 -215 -70 -329q-106 -176 -348 -176q-102 0 -188 36l-19 -36h-145l59 106q-127 119 -127 399zM229 485q0 -188 58 -270l342 623q-53 20 -119 20q-164 0 -231 -113 q-49 -82 -50 -260zM389 137q55 -23 121 -22q166 0 233 112q50 82 50 258q0 195 -62 277z" />
<glyph unicode="&#xf9;" horiz-adv-x="1081" d="M143 424v567h138v-567q0 -158 53 -227q61 -80 211 -80q100 0 174 60.5t74 160.5v653h135v-991h-135v74q-100 -90 -248 -90q-209 0 -305.5 105.5t-96.5 334.5zM309 1415h156l174 -299h-135z" />
<glyph unicode="&#xfa;" horiz-adv-x="1081" d="M143 424v567h138v-567q0 -158 53 -227q61 -80 211 -80q100 0 174 60.5t74 160.5v653h135v-991h-135v74q-100 -90 -248 -90q-209 0 -305.5 105.5t-96.5 334.5zM438 1116l174 299h156l-195 -299h-135z" />
<glyph unicode="&#xfb;" horiz-adv-x="1081" d="M143 424v567h138v-567q0 -158 53 -227q61 -80 211 -80q100 0 174 60.5t74 160.5v653h135v-991h-135v74q-100 -90 -248 -90q-209 0 -305.5 105.5t-96.5 334.5zM238 1092l194 299h195l194 -299h-155l-138 213l-137 -213h-153z" />
<glyph unicode="&#xfc;" horiz-adv-x="1081" d="M143 424v567h138v-567q0 -158 53 -227q61 -80 211 -80q100 0 174 60.5t74 160.5v653h135v-991h-135v74q-100 -90 -248 -90q-209 0 -305.5 105.5t-96.5 334.5zM231 1214q0 43 30 74t73 31t73.5 -31t30.5 -74t-30.5 -73.5t-73.5 -30.5t-73 30.5t-30 73.5zM635 1214 q0 43 29.5 74t74.5 31q43 0 73 -31t30 -74t-30 -73.5t-73 -30.5q-45 0 -74.5 30.5t-29.5 73.5z" />
<glyph unicode="&#xfd;" horiz-adv-x="897" d="M12 991h146l288 -796l293 796h146l-457 -1235q-35 -88 -86 -135q-80 -74 -192 -72h-60l2 138q117 -2 156 34q29 25 51 84l74 195zM299 1116l174 299h156l-195 -299h-135z" />
<glyph unicode="&#xfe;" horiz-adv-x="1040" d="M174 -451v1881h137v-510q102 82 248 81q231 0 334 -182q65 -115 65 -332q0 -219 -65 -333q-102 -182 -334 -183q-145 0 -248 82v-504h-137zM311 336q6 -72 31 -115q63 -113 217 -112q152 0 215 112q49 84 49 264q0 182 -49 267q-63 113 -215 112q-154 0 -217 -112 q-25 -45 -31 -117v-299z" />
<glyph unicode="&#xff;" horiz-adv-x="997" d="M61 991h146l289 -796l292 796h148l-459 -1235q-78 -209 -278 -207h-60l2 138l41 -2q70 0 106 26.5t60 93.5l74 195zM190 1214q0 43 31 74t74 31t73.5 -31t30.5 -74t-30.5 -73.5t-73.5 -30.5t-74 30.5t-31 73.5zM594 1214q0 43 30.5 74t73.5 31t74 -31t31 -74t-31 -73.5 t-74 -30.5t-73.5 30.5t-30.5 73.5z" />
<glyph unicode="&#x152;" horiz-adv-x="2060" d="M92 715q0 317 115 489q158 244 459 244q272 0 430 -203v185h872v-140h-729v-475h631v-141h-631v-535h729v-139h-870v186q-160 -205 -432 -204q-301 0 -459 243q-115 174 -115 490zM236 715q0 -274 92 -414q115 -178 338 -178t340 178q90 140 90 414t-90 413 q-117 178 -340 179q-223 0 -338 -179q-92 -139 -92 -413z" />
<glyph unicode="&#x153;" horiz-adv-x="1712" d="M92 492q0 221 70 335q111 176 354 177q248 0 356 -183q113 182 359 183q215 0 330 -175q43 -68 55 -184q4 -53 4 -194h-680q6 -150 53 -222q76 -115 256 -114q168 0 260 114l109 -82q-133 -166 -367 -165q-264 0 -379 182q-109 -182 -356 -182q-244 0 -354 176 q-70 115 -70 334zM229 492q0 -182 52 -265q70 -113 235 -112q166 0 234 112q51 83 51 265q0 184 -51 266q-68 111 -234 110q-166 0 -235 -110q-49 -82 -52 -266zM944 584h537q-6 125 -37 172q-74 113 -213 112q-162 0 -238 -112q-39 -59 -49 -172z" />
<glyph unicode="&#x178;" horiz-adv-x="1222" d="M72 1430h157l383 -777l381 777h158l-469 -957v-473h-141v477zM299 1692q0 43 30.5 73.5t73.5 30.5t74 -30.5t31 -73.5t-31 -74t-74 -31t-73.5 31t-30.5 74zM723 1692q0 43 30.5 73.5t73.5 30.5t74 -30.5t31 -73.5t-31 -74t-74 -31t-73.5 31t-30.5 74z" />
<glyph unicode="&#x2c6;" horiz-adv-x="956" d="M186 1092l195 299h194l193 -299h-154l-137 213l-137 -213h-154z" />
<glyph unicode="&#x2dc;" horiz-adv-x="1013" d="M164 1202q92 119 192 119q59 0 155.5 -44t135.5 -44q31 0 55 20q4 4 37 50l101 -82q-90 -119 -191 -119q-59 0 -158.5 44t-136.5 44t-90 -70z" />
<glyph unicode="&#x2000;" horiz-adv-x="1001" />
<glyph unicode="&#x2001;" horiz-adv-x="2003" />
<glyph unicode="&#x2002;" horiz-adv-x="1001" />
<glyph unicode="&#x2003;" horiz-adv-x="2003" />
<glyph unicode="&#x2004;" horiz-adv-x="667" />
<glyph unicode="&#x2005;" horiz-adv-x="500" />
<glyph unicode="&#x2006;" horiz-adv-x="333" />
<glyph unicode="&#x2007;" horiz-adv-x="333" />
<glyph unicode="&#x2008;" horiz-adv-x="250" />
<glyph unicode="&#x2009;" horiz-adv-x="400" />
<glyph unicode="&#x200a;" horiz-adv-x="111" />
<glyph unicode="&#x2010;" horiz-adv-x="813" d="M133 498v125h547v-125h-547z" />
<glyph unicode="&#x2011;" horiz-adv-x="813" d="M133 498v125h547v-125h-547z" />
<glyph unicode="&#x2012;" horiz-adv-x="813" d="M133 498v125h547v-125h-547z" />
<glyph unicode="&#x2013;" horiz-adv-x="1052" d="M113 498v125h827v-125h-827z" />
<glyph unicode="&#x2014;" horiz-adv-x="1662" d="M113 498v125h1437v-125h-1437z" />
<glyph unicode="&#x2018;" horiz-adv-x="485" d="M143 1176l15 116l159 248h25l-14 -364q-2 -37 -28 -63t-64 -26q-39 0 -68 27t-25 62z" />
<glyph unicode="&#x2019;" horiz-adv-x="485" d="M143 1087l15 365q2 37 27.5 62.5t64.5 25.5t67.5 -25.5t24.5 -62.5l-14 -117l-160 -248h-25z" />
<glyph unicode="&#x201a;" horiz-adv-x="485" d="M143 -248l15 365q2 37 27.5 62.5t64.5 25.5t67.5 -25.5t24.5 -62.5l-14 -117l-160 -248h-25z" />
<glyph unicode="&#x201c;" horiz-adv-x="784" d="M143 1176l15 116l159 248h25l-14 -364q-2 -37 -28 -63t-64 -26q-39 0 -68 27t-25 62zM442 1176l15 116l159 248h25l-14 -364q-2 -37 -29 -63t-63 -26q-39 0 -68 27t-25 62z" />
<glyph unicode="&#x201d;" horiz-adv-x="784" d="M143 1087l15 365q2 37 27.5 62.5t64.5 25.5t67.5 -25.5t24.5 -62.5l-14 -117l-160 -248h-25zM442 1087l15 365q0 37 26.5 62.5t63.5 25.5q41 0 68.5 -25.5t23.5 -62.5l-14 -117l-158 -248h-25z" />
<glyph unicode="&#x201e;" horiz-adv-x="784" d="M143 -248l15 365q2 37 27.5 62.5t64.5 25.5t67.5 -25.5t24.5 -62.5l-14 -117l-160 -248h-25zM442 -248l15 365q0 37 26.5 62.5t63.5 25.5q41 0 68.5 -25.5t23.5 -62.5l-14 -117l-158 -248h-25z" />
<glyph unicode="&#x2022;" horiz-adv-x="899" d="M133 692q0 131 93 224.5t225 93.5q131 0 223 -93.5t92 -224.5t-92 -224t-223 -93t-224.5 93t-93.5 224z" />
<glyph unicode="&#x2026;" horiz-adv-x="1411" d="M154 92q0 45 31.5 77t76.5 32t78 -32t33 -77t-33 -76.5t-78 -31.5t-76.5 31.5t-31.5 76.5zM596 92q0 45 33 77t78 32t76.5 -32t31.5 -77t-31.5 -76.5t-76.5 -31.5t-78 31.5t-33 76.5zM1040 92q0 45 32 77t77 32t76.5 -32t31.5 -77t-31.5 -76.5t-76.5 -31.5t-77 31.5 t-32 76.5z" />
<glyph unicode="&#x202f;" horiz-adv-x="400" />
<glyph unicode="&#x2039;" horiz-adv-x="643" d="M92 473v111l436 417l2 -186l-301 -287l301 -286v-189z" />
<glyph unicode="&#x203a;" horiz-adv-x="643" d="M113 53v189l299 286l-299 287v186l438 -417v-111z" />
<glyph unicode="&#x205f;" horiz-adv-x="500" />
<glyph unicode="&#x2122;" horiz-adv-x="989" d="M82 1372v58h338v-58h-139v-371h-60v371h-139zM461 1001v429h59l144 -357l141 357h61v-429h-59v287l-115 -287h-59l-115 287v-287h-57z" />
<glyph unicode="&#x25fc;" horiz-adv-x="993" d="M0 0v993h993v-993h-993z" />
</font>
</defs>
</svg>
